<?xml version="1.0" encoding="UTF-8"?>
<svg id="fog" xmlns="http://www.w3.org/2000/svg" viewBox="0 0 400 400">
  <defs>
    <style>
      .cls-1 {
        fill: none;
        stroke: #91fbfc;
        stroke-linecap: round;
        stroke-linejoin: round;
        stroke-width: 10px;
      }
    </style>
  </defs>
  <path class="cls-1" d="M317.59,300.33c-1.18.06-125.84.03-166.87-.07"/>
  <path class="cls-1" d="M339.59,390.39c-.99.03-103.43.02-138.13-.04"/>
  <path class="cls-1" d="M274.22,349.09c-1.39.03-144.19.02-192.57-.04"/>
  <path class="cls-1" d="M76.14,276.08C35.92,252.09,8.99,208.15,8.99,157.91,8.99,81.96,70.56,20.39,146.52,20.39c65.79,0,120.8,46.21,134.33,107.94,7.84-2.38,16.16-3.66,24.78-3.66,47.16,0,85.38,38.23,85.38,85.38,0,24.17-10.04,45.99-26.18,61.52"/>
</svg>