<?xml version="1.0" encoding="UTF-8"?>
<svg id="snow" xmlns="http://www.w3.org/2000/svg" viewBox="0 0 400 400">
  <defs>
    <style>
      .cls-1 {
        fill: none;
        stroke: #fff;
        stroke-linecap: round;
        stroke-linejoin: round;
        stroke-width: 10px;
      }
    </style>
  </defs>
  <g>
    <line class="cls-1" x1="200" y1="116.21" x2="200" y2="5.97"/>
    <line class="cls-1" x1="143.08" y1="34.28" x2="200" y2="61.09"/>
    <line class="cls-1" x1="200" y1="61.09" x2="256.92" y2="34.28"/>
  </g>
  <g>
    <line class="cls-1" x1="127.44" y1="158.1" x2="31.96" y2="102.98"/>
    <line class="cls-1" x1="28.03" y1="166.43" x2="79.7" y2="130.54"/>
    <line class="cls-1" x1="79.7" y1="130.54" x2="84.94" y2="67.85"/>
  </g>
  <g>
    <line class="cls-1" x1="127.44" y1="241.9" x2="31.96" y2="297.02"/>
    <line class="cls-1" x1="84.94" y1="332.15" x2="79.7" y2="269.46"/>
    <line class="cls-1" x1="79.7" y1="269.46" x2="28.03" y2="233.57"/>
  </g>
  <g>
    <line class="cls-1" x1="200" y1="283.79" x2="200" y2="394.03"/>
    <line class="cls-1" x1="256.92" y1="365.72" x2="200" y2="338.91"/>
    <line class="cls-1" x1="200" y1="338.91" x2="143.08" y2="365.72"/>
  </g>
  <g>
    <line class="cls-1" x1="272.56" y1="241.9" x2="368.04" y2="297.02"/>
    <line class="cls-1" x1="371.97" y1="233.57" x2="320.3" y2="269.46"/>
    <line class="cls-1" x1="320.3" y1="269.46" x2="315.06" y2="332.15"/>
  </g>
  <g>
    <line class="cls-1" x1="272.56" y1="158.1" x2="368.04" y2="102.98"/>
    <line class="cls-1" x1="315.06" y1="67.85" x2="320.3" y2="130.54"/>
    <line class="cls-1" x1="320.3" y1="130.54" x2="371.97" y2="166.43"/>
  </g>
  <circle class="cls-1" cx="200" cy="200" r="81.71"/>
</svg>