<?xml version="1.0" encoding="UTF-8"?>
<svg id="mosty_cloudy" data-name="mosty cloudy" xmlns="http://www.w3.org/2000/svg" viewBox="0 0 400 400">
  <defs>
    <style>
      .cls-1, .cls-2 {
        stroke: #fee265;
      }

      .cls-1, .cls-2, .cls-3 {
        fill: none;
        stroke-linecap: round;
        stroke-width: 10px;
      }

      .cls-1, .cls-3 {
        stroke-linejoin: round;
      }

      .cls-2 {
        stroke-miterlimit: 10;
      }

      .cls-3 {
        stroke: #91fbfc;
      }
    </style>
  </defs>
  <path class="cls-1" d="M279.85,207.02c7.84-2.38,16.16-3.66,24.78-3.66.48,0,.96.03,1.44.04,8.82-13.07,13.97-28.82,13.97-45.78,0-45.27-36.7-81.97-81.97-81.97-24.17,0-45.89,10.46-60.89,27.1,51.21,12.07,91.37,52.76,102.66,104.27Z"/>
  <g>
    <line class="cls-2" x1="143.74" y1="73.57" x2="119.06" y2="48.61"/>
    <line class="cls-2" x1="239.08" y1="42.41" x2="239.08" y2="7.32"/>
    <line class="cls-2" x1="338.63" y1="73.5" x2="363.45" y2="48.68"/>
    <line class="cls-2" x1="360.28" y1="157.62" x2="395.38" y2="157.62"/>
  </g>
  <path class="cls-3" d="M390.01,288.74c0,45.81-36.07,83.19-81.36,85.28-1.33.07-168.54.02-171.21-.14C65.24,369.7,7.99,309.84,7.99,236.6S69.56,99.08,145.52,99.08c65.79,0,120.8,46.21,134.33,107.94,7.84-2.38,16.16-3.66,24.78-3.66,47.16,0,85.38,38.23,85.38,85.38Z"/>
</svg>