<svg width="1171" height="143" viewBox="0 0 1171 143" fill="none" xmlns="http://www.w3.org/2000/svg">
<g filter="url(#filter0_d_3_572)">
<path d="M1082.09 130.959H1148.79V120.063H1093.8V76.3265H1138.36V65.4268H1093.8V30.5396H1149.27V19.645H1082.08L1082.09 130.959ZM873.7 130.959H940.41V120.063H885.417V76.3265H927.89V65.4268H885.417V30.5396H940.885V19.645H873.693L873.7 130.959ZM804.756 130.959H861.581V120.215H816.475V19.645H804.758L804.756 130.959ZM735.891 130.959H792.715V120.215H747.609V19.645H735.893L735.891 130.959ZM686.871 34.1066C694.488 38.1583 700.816 44.0829 705.19 51.2581C709.568 58.5556 711.814 66.8311 711.696 75.2289C711.805 83.7111 709.561 92.0711 705.19 99.469C700.926 106.671 694.657 112.619 687.069 116.663C679.379 120.839 670.661 123.008 661.802 122.948C655.308 123.045 648.861 121.882 642.855 119.532C636.85 117.182 631.413 113.693 626.876 109.28C622.17 104.936 618.456 99.7187 615.964 93.9536C613.472 88.1884 612.255 81.9981 612.39 75.7676C612.274 67.2575 614.532 58.8698 618.936 51.4568C623.286 44.2958 629.527 38.3358 637.044 34.1652C644.562 29.9945 653.094 27.7573 661.8 27.6745C670.611 27.6691 679.263 29.8921 686.869 34.115M630.738 24.6007C621.4 29.7047 613.698 37.1206 608.453 46.0566C603.023 55.1152 600.204 65.3721 600.278 75.7945C600.147 83.4338 601.673 91.0169 604.76 98.0727C607.846 105.128 612.429 111.506 618.221 116.809C623.957 122.331 630.821 126.682 638.39 129.597C645.96 132.512 654.077 133.929 662.244 133.76C670.362 133.908 678.425 132.472 685.936 129.542C693.446 126.612 700.244 122.251 705.908 116.727C711.715 111.341 716.299 104.883 719.379 97.7518C722.458 90.6202 723.968 82.9656 723.814 75.2592C723.992 67.5351 722.491 59.8589 719.404 52.7106C716.316 45.5623 711.709 39.0955 705.871 33.7143C693.907 22.4651 679.049 16.8405 661.295 16.8405C650.566 16.7831 640.016 19.4607 630.748 24.594M576.599 23.0066C567.351 18.805 557.203 16.6945 546.951 16.8405C528.835 16.8405 513.759 22.4017 501.723 33.5241C495.867 38.8096 491.236 45.1972 488.128 52.2787C485.02 59.3602 483.502 66.9797 483.672 74.6499C483.672 90.1366 488.639 103.354 498.573 114.303C510.424 127.27 526.603 133.753 547.111 133.752C557.204 133.889 567.204 131.913 576.401 127.963C584.964 124.235 592.464 118.617 598.276 111.577L589.034 104.92C577.982 117.128 564.247 123.233 547.829 123.233C532.897 123.233 520.53 118.692 510.728 109.609C505.927 105.226 502.14 99.9411 499.608 94.0913C497.077 88.2415 495.857 81.9552 496.025 75.6329C495.893 67.1355 498.164 58.7598 502.601 51.3793C507.018 44.1619 513.424 38.2254 521.131 34.2092C529.053 29.9566 538.011 27.751 547.111 27.8126C555.249 27.7263 563.302 29.3955 570.662 32.6942C577.899 36.0202 584.197 40.9369 589.032 47.0363L598.274 40.3029C592.679 32.9143 585.228 26.9705 576.597 23.0117" fill="#2306C2" fill-opacity="0.5"/>
</g>
<g filter="url(#filter1_d_3_572)">
<path d="M352.114 130.895H391.294V90.9884H427.124V130.895H466.305V19.6029H427.124V58.8702H391.294V19.6029H352.114V130.895ZM309.667 130.895C315.093 129.44 320.277 127.272 325.07 124.455C329.479 121.845 333.458 118.631 336.878 114.917C340.187 111.311 343.104 107.396 345.584 103.233L313.266 85.8946C311.055 89.7484 308.101 93.1743 304.56 95.9946C300.714 98.7464 295.971 100.126 291.162 99.8916C288.096 99.9265 285.062 99.3009 282.287 98.0618C279.618 96.8514 277.25 95.1176 275.339 92.9747C273.314 90.6802 271.778 88.0345 270.815 85.1842C269.724 81.9767 269.185 78.623 269.219 75.2525V74.9326C269.205 71.7431 269.744 68.573 270.815 65.5497C271.795 62.7243 273.296 60.0866 275.247 57.7592C277.112 55.5627 279.453 53.7732 282.112 52.5122C284.926 51.2121 288.024 50.5588 291.153 50.605C295.804 50.3954 300.388 51.7153 304.133 54.342C307.581 57.0191 310.404 60.3502 312.419 64.1222L344.737 46.1542C342.305 41.9415 339.357 38.0167 335.954 34.4617C332.531 30.8951 328.585 27.8154 324.237 25.3178C319.636 22.6979 314.677 20.6922 309.499 19.3571C303.685 17.8767 297.686 17.1547 291.667 17.2109C283.296 17.1525 274.992 18.6389 267.218 21.5876C259.831 24.3772 253.089 28.5091 247.37 33.7514C241.699 38.9923 237.2 45.2656 234.141 52.1958C230.917 59.4956 229.293 67.3422 229.367 75.2575V75.574C229.262 83.6594 230.949 91.6753 234.317 99.1021C237.391 105.915 241.861 112.079 247.466 117.238C253.072 122.396 259.7 126.446 266.968 129.151C274.352 131.915 282.224 133.314 290.16 133.274C296.747 133.358 303.313 132.556 309.662 130.89M123.38 130.89H224.185V100.37H161.896V88.2832H214.409V61.4188H161.896V50.1286H223.351V19.6029H123.386L123.38 130.89ZM38.486 130.89H77.6667V51.0847H112.165V19.6063H4V51.0847H38.4914L38.486 130.89Z" fill="#2306C2" fill-opacity="0.5"/>
</g>
<g filter="url(#filter2_d_3_572)">
<path d="M1042.46 25.8245C1030.42 18.8175 1016.21 15.9563 1002.21 17.7215C988.219 19.4866 975.289 25.7706 965.596 35.5181C955.903 45.2656 950.037 57.883 948.984 71.2516C947.931 84.6201 951.755 97.9255 959.813 108.934C967.871 119.942 979.673 127.982 993.237 131.704C1006.8 135.426 1021.3 134.604 1034.3 129.375C1047.3 124.145 1058.01 114.828 1064.63 102.988C1071.25 91.1469 1073.38 77.5038 1070.66 64.3494L1060.04 66.3223C1062.28 77.162 1060.52 88.4038 1055.07 98.1601C1049.61 107.916 1040.79 115.593 1030.07 119.901C1019.36 124.208 1007.41 124.885 996.235 121.817C985.059 118.749 975.334 112.123 968.695 103.052C962.056 93.9809 958.906 83.0169 959.774 72.0011C960.642 60.9853 965.476 50.5886 973.463 42.5567C981.45 34.5248 992.105 29.3469 1003.64 27.8925C1015.17 26.4381 1026.88 28.7957 1036.8 34.5694L1042.46 25.8245Z" fill="#2306C2" fill-opacity="0.5"/>
</g>
<g filter="url(#filter3_d_3_572)">
<path d="M1056.6 38.6994L1009.94 69.4937L1016.21 78.0463L1062.86 47.252L1056.6 38.6994Z" fill="#2306C2" fill-opacity="0.5"/>
</g>
<g filter="url(#filter4_d_3_572)">
<path d="M1099.82 114.126H1166.52V103.23H1111.53V59.493H1156.09V48.5934H1111.53V13.7061H1167V2.81154H1099.81L1099.82 114.126ZM891.429 114.126H958.139V103.23H903.146V59.493H945.619V48.5934H903.146V13.7061H958.614V2.81154H891.422L891.429 114.126ZM822.485 114.126H879.31V103.381H834.204V2.81154H822.487L822.485 114.126ZM753.62 114.126H810.444V103.381H765.338V2.81154H753.622L753.62 114.126ZM704.6 17.2731C712.217 21.3248 718.545 27.2494 722.919 34.4247C727.297 41.7222 729.543 49.9976 729.425 58.3955C729.534 66.8776 727.29 75.2377 722.919 82.6356C718.655 89.8372 712.386 95.7856 704.798 99.8293C697.108 104.006 688.39 106.175 679.531 106.115C673.037 106.211 666.59 105.049 660.584 102.699C654.579 100.348 649.142 96.8597 644.605 92.4461C639.899 88.1021 636.185 82.8853 633.693 77.1201C631.201 71.355 629.984 65.1647 630.119 58.9342C630.003 50.4241 632.261 42.0364 636.665 34.6233C641.015 27.4624 647.256 21.5024 654.773 17.3317C662.291 13.161 670.823 10.9239 679.529 10.8411C688.34 10.8357 696.992 13.0587 704.598 17.2815M648.467 7.7673C639.129 12.8713 631.427 20.2871 626.182 29.2232C620.752 38.2818 617.933 48.5387 618.007 58.9611C617.876 66.6004 619.402 74.1835 622.489 81.2393C625.575 88.295 630.158 94.6726 635.95 99.9757C641.686 105.497 648.55 109.849 656.119 112.764C663.689 115.679 671.806 117.095 679.973 116.927C688.091 117.074 696.154 115.639 703.665 112.709C711.175 109.779 717.973 105.417 723.637 99.8932C729.444 94.5075 734.028 88.0499 737.108 80.9184C740.187 73.7868 741.697 66.1321 741.543 58.4258C741.721 50.7016 740.22 43.0255 737.133 35.8772C734.045 28.7289 729.438 22.2621 723.6 16.8809C711.636 5.6317 696.778 0.00709782 679.024 0.00709782C668.295 -0.0503473 657.745 2.62727 648.477 7.76057M594.328 6.17318C585.08 1.97154 574.932 -0.138981 564.68 0.00709782C546.564 0.00709782 531.488 5.5683 519.452 16.6907C513.596 21.9761 508.965 28.3638 505.857 35.4453C502.749 42.5268 501.231 50.1462 501.401 57.8164C501.401 73.3032 506.368 86.5208 516.302 97.4692C528.153 110.437 544.332 116.92 564.84 116.919C574.933 117.056 584.933 115.079 594.13 111.13C602.693 107.402 610.193 101.784 616.005 94.7439L606.763 88.0863C595.711 100.295 581.976 106.399 565.558 106.399C550.626 106.399 538.259 101.858 528.457 92.7761C523.656 88.3926 519.869 83.1076 517.337 77.2579C514.806 71.4081 513.586 65.1218 513.754 58.7995C513.622 50.302 515.893 41.9264 520.33 34.5459C524.747 27.3285 531.153 21.3919 538.86 17.3758C546.782 13.1232 555.74 10.9176 564.84 10.9791C572.978 10.8928 581.031 12.562 588.391 15.8608C595.628 19.1868 601.926 24.1034 606.761 30.2029L616.003 23.4695C610.408 16.0809 602.957 10.1371 594.326 6.17823" fill="#FFFCC6"/>
</g>
<g filter="url(#filter5_d_3_572)">
<path d="M369.843 114.062H409.023V74.1549H444.853V114.062H484.034V2.76946H444.853V42.0368H409.023V2.76946H369.843V114.062ZM327.396 114.062C332.822 112.607 338.006 110.439 342.799 107.621C347.208 105.011 351.187 101.797 354.607 98.0836C357.916 94.4775 360.833 90.5629 363.313 86.3995L330.995 69.0611C328.784 72.915 325.83 76.3408 322.289 79.1612C318.443 81.913 313.7 83.2925 308.891 83.0581C305.825 83.0931 302.791 82.4675 300.016 81.2283C297.347 80.018 294.979 78.2842 293.068 76.1413C291.043 73.8468 289.507 71.2011 288.544 68.3508C287.453 65.1432 286.914 61.7896 286.948 58.419V58.0992C286.934 54.9096 287.473 51.7396 288.544 48.7163C289.524 45.8909 291.025 43.2532 292.976 40.9258C294.841 38.7293 297.182 36.9397 299.841 35.6788C302.655 34.3787 305.753 33.7253 308.882 33.7716C313.533 33.5619 318.117 34.8819 321.862 37.5086C325.31 40.1857 328.133 43.5168 330.148 47.2888L362.466 29.3208C360.034 25.108 357.086 21.1833 353.683 17.6283C350.26 14.0616 346.314 10.982 341.966 8.4844C337.365 5.8645 332.406 3.85875 327.228 2.52369C321.414 1.04331 315.415 0.321266 309.396 0.377431C301.025 0.319046 292.721 1.80548 284.947 4.75412C277.56 7.54374 270.818 11.6756 265.099 16.9179C259.428 22.1589 254.929 28.4321 251.87 35.3623C248.646 42.6621 247.022 50.5088 247.096 58.4241V58.7406C246.991 66.8259 248.678 74.8418 252.046 82.2686C255.12 89.0811 259.59 95.2456 265.195 100.404C270.801 105.563 277.429 109.612 284.697 112.318C292.081 115.082 299.953 116.481 307.889 116.44C314.476 116.525 321.042 115.722 327.391 114.057M141.109 114.057H241.914V83.5362H179.625V71.4498H232.138V44.5853H179.625V33.2952H241.08V2.76946H141.115L141.109 114.057ZM56.2151 114.057H95.3957V34.2513H129.894V2.77282H21.729V34.2513H56.2204L56.2151 114.057Z" fill="#FFFCC6"/>
</g>
<g filter="url(#filter6_d_3_572)">
<path d="M1060.19 8.99102C1048.15 1.98402 1033.94 -0.877133 1019.94 0.888019C1005.95 2.65317 993.017 8.93713 983.324 18.6846C973.631 28.4322 967.766 41.0496 966.713 54.4181C965.66 67.7867 969.483 81.0921 977.542 92.1001C985.6 103.108 997.402 111.148 1010.97 114.871C1024.53 118.593 1039.03 117.77 1052.03 112.541C1065.03 107.312 1075.74 97.9949 1082.36 86.1541C1088.98 74.3134 1091.11 60.6704 1088.39 47.516L1077.77 49.4889C1080.01 60.3285 1078.25 71.5704 1072.8 81.3267C1067.34 91.0829 1058.51 98.7595 1047.8 103.067C1037.09 107.375 1025.14 108.052 1013.96 104.984C1002.79 101.916 993.063 95.2898 986.424 86.2187C979.784 77.1475 976.634 66.1835 977.502 55.1677C978.37 44.1519 983.204 33.7551 991.191 25.7233C999.179 17.6914 1009.83 12.5135 1021.37 11.0591C1032.9 9.60463 1044.61 11.9622 1054.53 17.736L1060.19 8.99102Z" fill="#FFFCC6"/>
</g>
<g filter="url(#filter7_d_3_572)">
<path d="M1074.33 21.866L1027.67 52.6603L1033.93 61.2129L1080.59 30.4186L1074.33 21.866Z" fill="#FFFCC6"/>
</g>
<defs>
<filter id="filter0_d_3_572" x="479.659" y="16.8334" width="673.612" height="125.94" filterUnits="userSpaceOnUse" color-interpolation-filters="sRGB">
<feFlood flood-opacity="0" result="BackgroundImageFix"/>
<feColorMatrix in="SourceAlpha" type="matrix" values="0 0 0 0 0 0 0 0 0 0 0 0 0 0 0 0 0 0 127 0" result="hardAlpha"/>
<feOffset dy="5"/>
<feGaussianBlur stdDeviation="2"/>
<feColorMatrix type="matrix" values="0 0 0 0 0 0 0 0 0 0 0 0 0 0 0 0 0 0 0.161 0"/>
<feBlend mode="normal" in2="BackgroundImageFix" result="effect1_dropShadow_3_572"/>
<feBlend mode="normal" in="SourceGraphic" in2="effect1_dropShadow_3_572" result="shape"/>
</filter>
<filter id="filter1_d_3_572" x="0" y="17.2078" width="470.305" height="125.072" filterUnits="userSpaceOnUse" color-interpolation-filters="sRGB">
<feFlood flood-opacity="0" result="BackgroundImageFix"/>
<feColorMatrix in="SourceAlpha" type="matrix" values="0 0 0 0 0 0 0 0 0 0 0 0 0 0 0 0 0 0 127 0" result="hardAlpha"/>
<feOffset dy="5"/>
<feGaussianBlur stdDeviation="2"/>
<feColorMatrix type="matrix" values="0 0 0 0 0 0 0 0 0 0 0 0 0 0 0 0 0 0 0.161 0"/>
<feBlend mode="normal" in2="BackgroundImageFix" result="effect1_dropShadow_3_572"/>
<feBlend mode="normal" in="SourceGraphic" in2="effect1_dropShadow_3_572" result="shape"/>
</filter>
<filter id="filter2_d_3_572" x="944.813" y="17.213" width="130.999" height="125.787" filterUnits="userSpaceOnUse" color-interpolation-filters="sRGB">
<feFlood flood-opacity="0" result="BackgroundImageFix"/>
<feColorMatrix in="SourceAlpha" type="matrix" values="0 0 0 0 0 0 0 0 0 0 0 0 0 0 0 0 0 0 127 0" result="hardAlpha"/>
<feOffset dy="5"/>
<feGaussianBlur stdDeviation="2"/>
<feColorMatrix type="matrix" values="0 0 0 0 0 0 0 0 0 0 0 0 0 0 0 0 0 0 0.161 0"/>
<feBlend mode="normal" in2="BackgroundImageFix" result="effect1_dropShadow_3_572"/>
<feBlend mode="normal" in="SourceGraphic" in2="effect1_dropShadow_3_572" result="shape"/>
</filter>
<filter id="filter3_d_3_572" x="1005.94" y="38.6993" width="60.9185" height="48.347" filterUnits="userSpaceOnUse" color-interpolation-filters="sRGB">
<feFlood flood-opacity="0" result="BackgroundImageFix"/>
<feColorMatrix in="SourceAlpha" type="matrix" values="0 0 0 0 0 0 0 0 0 0 0 0 0 0 0 0 0 0 127 0" result="hardAlpha"/>
<feOffset dy="5"/>
<feGaussianBlur stdDeviation="2"/>
<feColorMatrix type="matrix" values="0 0 0 0 0 0 0 0 0 0 0 0 0 0 0 0 0 0 0.161 0"/>
<feBlend mode="normal" in2="BackgroundImageFix" result="effect1_dropShadow_3_572"/>
<feBlend mode="normal" in="SourceGraphic" in2="effect1_dropShadow_3_572" result="shape"/>
</filter>
<filter id="filter4_d_3_572" x="497.388" y="0" width="673.612" height="125.94" filterUnits="userSpaceOnUse" color-interpolation-filters="sRGB">
<feFlood flood-opacity="0" result="BackgroundImageFix"/>
<feColorMatrix in="SourceAlpha" type="matrix" values="0 0 0 0 0 0 0 0 0 0 0 0 0 0 0 0 0 0 127 0" result="hardAlpha"/>
<feOffset dy="5"/>
<feGaussianBlur stdDeviation="2"/>
<feColorMatrix type="matrix" values="0 0 0 0 0 0 0 0 0 0 0 0 0 0 0 0 0 0 0.161 0"/>
<feBlend mode="normal" in2="BackgroundImageFix" result="effect1_dropShadow_3_572"/>
<feBlend mode="normal" in="SourceGraphic" in2="effect1_dropShadow_3_572" result="shape"/>
</filter>
<filter id="filter5_d_3_572" x="17.729" y="0.37439" width="470.305" height="125.072" filterUnits="userSpaceOnUse" color-interpolation-filters="sRGB">
<feFlood flood-opacity="0" result="BackgroundImageFix"/>
<feColorMatrix in="SourceAlpha" type="matrix" values="0 0 0 0 0 0 0 0 0 0 0 0 0 0 0 0 0 0 127 0" result="hardAlpha"/>
<feOffset dy="5"/>
<feGaussianBlur stdDeviation="2"/>
<feColorMatrix type="matrix" values="0 0 0 0 0 0 0 0 0 0 0 0 0 0 0 0 0 0 0.161 0"/>
<feBlend mode="normal" in2="BackgroundImageFix" result="effect1_dropShadow_3_572"/>
<feBlend mode="normal" in="SourceGraphic" in2="effect1_dropShadow_3_572" result="shape"/>
</filter>
<filter id="filter6_d_3_572" x="962.542" y="0.379517" width="130.999" height="125.787" filterUnits="userSpaceOnUse" color-interpolation-filters="sRGB">
<feFlood flood-opacity="0" result="BackgroundImageFix"/>
<feColorMatrix in="SourceAlpha" type="matrix" values="0 0 0 0 0 0 0 0 0 0 0 0 0 0 0 0 0 0 127 0" result="hardAlpha"/>
<feOffset dy="5"/>
<feGaussianBlur stdDeviation="2"/>
<feColorMatrix type="matrix" values="0 0 0 0 0 0 0 0 0 0 0 0 0 0 0 0 0 0 0.161 0"/>
<feBlend mode="normal" in2="BackgroundImageFix" result="effect1_dropShadow_3_572"/>
<feBlend mode="normal" in="SourceGraphic" in2="effect1_dropShadow_3_572" result="shape"/>
</filter>
<filter id="filter7_d_3_572" x="1023.67" y="21.866" width="60.9185" height="48.347" filterUnits="userSpaceOnUse" color-interpolation-filters="sRGB">
<feFlood flood-opacity="0" result="BackgroundImageFix"/>
<feColorMatrix in="SourceAlpha" type="matrix" values="0 0 0 0 0 0 0 0 0 0 0 0 0 0 0 0 0 0 127 0" result="hardAlpha"/>
<feOffset dy="5"/>
<feGaussianBlur stdDeviation="2"/>
<feColorMatrix type="matrix" values="0 0 0 0 0 0 0 0 0 0 0 0 0 0 0 0 0 0 0.161 0"/>
<feBlend mode="normal" in2="BackgroundImageFix" result="effect1_dropShadow_3_572"/>
<feBlend mode="normal" in="SourceGraphic" in2="effect1_dropShadow_3_572" result="shape"/>
</filter>
</defs>
</svg>
